# xmcd
# Copyright (C) 1995-1998 Ti Kan
#
# Track frame offsets:
#       150
#       18187
#       33756
#       53721
#       74138
#       91007
#       108236
#       126645
#       142904
#       160132
#       178899
#       198649
#       214988
#       231175
#       249956
#       266314
#       282253
#       296575
#
# Disc length: 4196 seconds
#
# Revision: 0
# Processed by: cddbd v1.5.2PL0 Copyright (c) Steve Scherf et al.
# Submitted via: CD-Import v1.0
#
DISCID=08106212
DTITLE=A Tribe Called Quset - Hits, Rarities and Remixes
DYEAR=2003
DGENRE=
TTITLE0=Oh My God (Remix)
TTITLE1=Award Tour
TTITLE2=Can I Kick It?
TTITLE3=One, Two, S**t Featuring Busta Rhymes
TTITLE4=Electric Relaxation
TTITLE5=Mr. Incognito
TTITLE6=I Left My Wallet In El Segundo
TTITLE7=Check The Rhime
TTITLE8=Lyrics To Go (Tumblin' Dice Remix)
TTITLE9=Scenario
TTITLE10=Same Ol' Thing
TTITLE11=Buggin' Out
TTITLE12=Bonita Applebum
TTITLE13=Jazz (We've Got)
TTITLE14=Glamour and Glitz
TTITLE15=Clap Your Hands
TTITLE16=The Night He Got Caught
TTITLE17=Peace, Prosperity and Paper
EXTD=
EXTT0=
EXTT1=
EXTT2=
EXTT3=
EXTT4=
EXTT5=
EXTT6=
EXTT7=
EXTT8=
EXTT9=
EXTT10=
EXTT11=
EXTT12=
EXTT13=
EXTT14=
EXTT15=
EXTT16=
EXTT17=
PLAYORDER=
